<?xml version="1.0" standalone="no"?><!DOCTYPE svg PUBLIC "-//W3C//DTD SVG 1.1//EN" "http://www.w3.org/Graphics/SVG/1.1/DTD/svg11.dtd"><svg t="1652690458883" class="icon" viewBox="0 0 1024 1024" version="1.1" xmlns="http://www.w3.org/2000/svg" p-id="2627" xmlns:xlink="http://www.w3.org/1999/xlink" width="200" height="200"><defs><style type="text/css">@font-face { font-family: feedback-iconfont; src: url("//at.alicdn.com/t/font_1031158_u69w8yhxdu.woff2?t=1630033759944") format("woff2"), url("//at.alicdn.com/t/font_1031158_u69w8yhxdu.woff?t=1630033759944") format("woff"), url("//at.alicdn.com/t/font_1031158_u69w8yhxdu.ttf?t=1630033759944") format("truetype"); }
</style></defs><path d="M728.8 266.7L780 345v517.8l-50.2 76.3H299.2L249 860.8V347l52.2-80.3V110.6c0-15.8 12.8-28.5 28.5-28.5h370.4c15.8 0 28.5 12.8 28.5 28.5v156.1z" fill="#FFFFFF" p-id="2628"></path><path d="M325 145.1h404.4v50.5H325z" fill="#F7D822" p-id="2629"></path><path d="M754.7 928.6H325V347.3h454.9v522.3z" fill="#E1F9FF" p-id="2630"></path><path d="M742 928.6H325V600h454.9v240.2z" fill="#BEECFD" p-id="2631"></path><path d="M742 928.6H325v-75.8h454.9z" fill="#9EE0F2" p-id="2632"></path><path d="M249.2 370.9c-8.3 0-15.1-6.7-15.1-15.1 0-14.3 4.4-28 12.9-39.5l32-44c3.7-5.1 5.7-11.2 5.7-17.6v-55.2c0-8.3 6.7-15.1 15.1-15.1 8.3 0 15.1 6.7 15.1 15.1v55.2c0 12.8-4 25-11.5 35.3l-32 44c-4.6 6.4-7.1 13.9-7.1 21.8-0.1 8.4-6.8 15.1-15.1 15.1zM249.2 483.1c-8.3 0-15.1-6.7-15.1-15.1v-45c0-8.3 6.7-15.1 15.1-15.1 8.3 0 15.1 6.7 15.1 15.1v45c-0.1 8.4-6.8 15.1-15.1 15.1z" fill="" p-id="2633"></path><path d="M712.7 956.3H316.5c-23.5 0-44.8-13.7-54.7-34.9l-22.1-37.1-0.4-0.8c-3.4-7.8-5.2-16-5.2-24.5V539c0-8.3 6.7-15.1 15.1-15.1 8.3 0 15.1 6.7 15.1 15.1v320c0 4 0.8 7.8 2.3 11.5l22 37 0.4 0.8c4.8 10.9 15.6 17.9 27.5 17.9h396.2c11.9 0 22.7-7 27.5-17.9l0.4-0.8 22-37c1.5-3.7 2.3-7.5 2.3-11.5V355.8c0-7.9-2.5-15.4-7.1-21.8l-32-44c-7.5-10.3-11.5-22.5-11.5-35.3V113.5c0-9.1-7.4-16.5-16.5-16.5H331.3c-9.1 0-16.5 7.4-16.5 16.5V143c0 8.3-6.7 15.1-15.1 15.1-8.3 0-15.1-6.7-15.1-15.1v-29.5c0-25.7 20.9-46.6 46.6-46.6h366.5c25.7 0 46.6 20.9 46.6 46.6v141.3c0 6.4 2 12.4 5.7 17.6l32 44c8.4 11.6 12.9 25.2 12.9 39.5V859c0 8.5-1.7 16.7-5.2 24.5l-0.4 0.8-22.1 37.1c-9.7 21.2-31.1 34.9-54.5 34.9z" fill="" p-id="2634"></path><path d="M754.7 160.2H362.9c-8.3 0-15.1-6.7-15.1-15.1s6.7-15.1 15.1-15.1h391.8c8.3 0 15.1 6.7 15.1 15.1s-6.8 15.1-15.1 15.1zM678.8 210.7H274.4c-8.3 0-15.1-6.7-15.1-15.1s6.7-15.1 15.1-15.1h404.4c8.3 0 15.1 6.7 15.1 15.1s-6.7 15.1-15.1 15.1z" fill="" p-id="2635"></path><path d="M471.7 519.9m-19 0a19 19 0 1 0 38 0 19 19 0 1 0-38 0Z" fill="#050400" p-id="2636"></path><path d="M585.9 519.9m-19 0a19 19 0 1 0 38 0 19 19 0 1 0-38 0Z" fill="#050400" p-id="2637"></path><path d="M528.8 622.6c-18.1 0-32.9-14.8-32.9-32.9 0-4.2 3.4-7.5 7.5-7.5 4.2 0 7.5 3.4 7.5 7.5 0 9.8 8 17.9 17.9 17.9s17.9-8 17.9-17.9c0-4.2 3.4-7.5 7.5-7.5s7.5 3.4 7.5 7.5c0 18.1-14.7 32.9-32.9 32.9z" fill="#050400" p-id="2638"></path><path d="M414.6 567.5m-22.2 0a22.2 22.2 0 1 0 44.4 0 22.2 22.2 0 1 0-44.4 0Z" fill="#F8B0CB" p-id="2639"></path><path d="M643 567.5m-22.2 0a22.2 22.2 0 1 0 44.4 0 22.2 22.2 0 1 0-44.4 0Z" fill="#F8B0CB" p-id="2640"></path></svg>